<svg width="424" height="172" viewBox="0 0 424 172" fill="none" xmlns="http://www.w3.org/2000/svg">
<path d="M21 43.9688H20.9531H21ZM30 42C31.625 42 33.0312 41.4219 34.2188 40.2656C35.4062 39.0781 36 37.6562 36 36V30C36 28.375 35.4062 26.9688 34.2188 25.7812C33.0312 24.5938 31.625 24 30 24C26.6875 24 23.8594 22.8281 21.5156 20.4844C21.3281 20.3281 21.1562 20.1562 21 19.9688C20.8125 20.1562 20.625 20.3281 20.4375 20.4844C18.0938 22.8281 15.2812 24 12 24C10.3438 24 8.92188 24.5938 7.73438 25.7812C6.57812 26.9688 6 28.375 6 30V36C6 37.6562 6.57812 39.0781 7.73438 40.2656C8.92188 41.4219 10.3438 42 12 42C13.625 42 15.0312 41.4219 16.2188 40.2656C17.4062 39.0781 18 37.6562 18 36H24C24 37.6562 24.5781 39.0781 25.7344 40.2656C26.9219 41.4219 28.3438 42 30 42ZM21 19.9688H20.9531H21ZM12 48C8.6875 48 5.85938 46.8281 3.51562 44.4844C1.17188 42.1406 0 39.3125 0 36V30C0 26.7188 1.17188 23.9062 3.51562 21.5625C5.85938 19.1875 8.6875 18 12 18C13.625 18 15.0312 17.4219 16.2188 16.2656C17.4062 15.0781 18 13.6563 18 12H24C24 13.6563 24.5781 15.0781 25.7344 16.2656C26.9219 17.4219 28.3438 18 30 18C33.2812 18 36.0938 19.1875 38.4375 21.5625C40.8125 23.9062 42 26.7188 42 30V36C42 39.3125 40.8125 42.1406 38.4375 44.4844C36.0938 46.8281 33.2812 48 30 48C26.6875 48 23.8594 46.8281 21.5156 44.4844C21.3281 44.3281 21.1562 44.1562 21 43.9688C20.8125 44.1562 20.625 44.3281 20.4375 44.4844C18.0938 46.8281 15.2812 48 12 48Z" fill="white"/>
<path d="M16.0054 59.64C17.0614 59.64 17.9974 59.896 18.8134 60.408C19.6294 60.92 20.2614 61.648 20.7094 62.592C21.1574 63.52 21.3814 64.608 21.3814 65.856C21.3814 67.104 21.1574 68.208 20.7094 69.168C20.2614 70.112 19.6294 70.848 18.8134 71.376C17.9974 71.904 17.0614 72.168 16.0054 72.168C15.0614 72.168 14.2374 71.96 13.5334 71.544C12.8294 71.128 12.2934 70.536 11.9254 69.768V72H9.98138V54.336H11.9254V62.064C12.2774 61.28 12.8054 60.68 13.5094 60.264C14.2294 59.848 15.0614 59.64 16.0054 59.64ZM15.6454 70.56C16.8134 70.56 17.7254 70.152 18.3814 69.336C19.0374 68.504 19.3654 67.344 19.3654 65.856C19.3654 64.4 19.0374 63.272 18.3814 62.472C17.7414 61.672 16.8294 61.272 15.6454 61.272C14.4454 61.272 13.5254 61.672 12.8854 62.472C12.2454 63.272 11.9254 64.416 11.9254 65.904C11.9254 67.392 12.2454 68.544 12.8854 69.36C13.5254 70.16 14.4454 70.56 15.6454 70.56ZM35.004 59.928V72H33.084V69.816C32.732 70.568 32.196 71.152 31.476 71.568C30.772 71.968 29.948 72.168 29.004 72.168C27.932 72.168 26.988 71.912 26.172 71.4C25.372 70.888 24.748 70.168 24.3 69.24C23.868 68.296 23.652 67.2 23.652 65.952C23.652 64.704 23.876 63.608 24.324 62.664C24.772 61.704 25.396 60.96 26.196 60.432C27.012 59.904 27.948 59.64 29.004 59.64C29.948 59.64 30.772 59.848 31.476 60.264C32.18 60.68 32.716 61.264 33.084 62.016V59.928H35.004ZM29.388 70.56C30.572 70.56 31.484 70.16 32.124 69.36C32.764 68.544 33.084 67.392 33.084 65.904C33.084 64.416 32.764 63.272 32.124 62.472C31.484 61.672 30.572 61.272 29.388 61.272C28.204 61.272 27.276 61.688 26.604 62.52C25.948 63.336 25.62 64.48 25.62 65.952C25.62 67.424 25.948 68.56 26.604 69.36C27.26 70.16 28.188 70.56 29.388 70.56Z" fill="white"/>
<path d="M97 48C97 46.375 96.4062 44.9688 95.2188 43.7812C94.0312 42.5938 92.625 42 91 42H73C69.6875 42 66.8594 40.8281 64.5156 38.4844C62.1719 36.1406 61 33.3125 61 30H67C67 31.6562 67.5781 33.0781 68.7344 34.2656C69.9219 35.4219 71.3438 36 73 36H79V24H73C69.6875 24 66.8594 22.8281 64.5156 20.4844C62.1719 18.1406 61 15.3125 61 12H67C67 13.6563 67.5781 15.0781 68.7344 16.2656C69.9219 17.4219 71.3438 18 73 18H91C94.2812 18 97.0938 19.1875 99.4375 21.5625C101.812 23.9062 103 26.7188 103 30H97C97 28.375 96.4062 26.9688 95.2188 25.7812C94.0312 24.5938 92.625 24 91 24H85V36H91C94.2812 36 97.0938 37.1875 99.4375 39.5625C101.812 41.9062 103 44.7188 103 48H97Z" fill="white"/>
<path d="M80.2424 72L74.0504 66.192V72H72.1064V54.336H74.0504V65.472L79.7384 59.952H82.2104L76.1624 65.736L82.7864 72H80.2424ZM94.879 59.928V72H92.959V69.816C92.607 70.568 92.071 71.152 91.351 71.568C90.647 71.968 89.823 72.168 88.879 72.168C87.807 72.168 86.863 71.912 86.047 71.4C85.247 70.888 84.623 70.168 84.175 69.24C83.743 68.296 83.527 67.2 83.527 65.952C83.527 64.704 83.751 63.608 84.199 62.664C84.647 61.704 85.271 60.96 86.071 60.432C86.887 59.904 87.823 59.64 88.879 59.64C89.823 59.64 90.647 59.848 91.351 60.264C92.055 60.68 92.591 61.264 92.959 62.016V59.928H94.879ZM89.263 70.56C90.447 70.56 91.359 70.16 91.999 69.36C92.639 68.544 92.959 67.392 92.959 65.904C92.959 64.416 92.639 63.272 91.999 62.472C91.359 61.672 90.447 61.272 89.263 61.272C88.079 61.272 87.151 61.688 86.479 62.52C85.823 63.336 85.495 64.48 85.495 65.952C85.495 67.424 85.823 68.56 86.479 69.36C87.135 70.16 88.063 70.56 89.263 70.56Z" fill="white"/>
<path d="M143 48C139.688 48 136.859 46.8281 134.516 44.4844C132.172 42.1406 131 39.3125 131 36V34.4531H130.953C130.078 33.9219 129.266 33.2656 128.516 32.4844C126.172 30.1406 125 27.3125 125 24C125 20.7188 126.172 17.9062 128.516 15.5625C130.859 13.1875 133.688 12 137 12V18C135.344 18 133.922 18.5938 132.734 19.7812C131.578 20.9688 131 22.375 131 24C131 25.6562 131.578 27.0781 132.734 28.2656C133.922 29.4219 135.344 30 137 30C138.625 30 140.031 29.4219 141.219 28.2656C142.406 27.0781 143 25.6562 143 24C143 20.7188 144.172 17.9062 146.516 15.5625C148.859 13.1875 151.688 12 155 12H167V18H155C153.344 18 151.922 18.5938 150.734 19.7812C149.578 20.9688 149 22.375 149 24C149 27.3125 147.812 30.1406 145.438 32.4844C143.094 34.8281 140.281 36 137 36C137 37.6562 137.578 39.0781 138.734 40.2656C139.922 41.4219 141.344 42 143 42C144.625 42 146.031 41.4219 147.219 40.2656C148.406 39.0781 149 37.6562 149 36C149 32.7188 150.172 29.9062 152.516 27.5625C154.859 25.1875 157.688 24 161 24H173V30H161C159.344 30 157.922 30.5938 156.734 31.7812C155.578 32.9688 155 34.375 155 36C155 39.3125 153.812 42.1406 151.438 44.4844C149.094 46.8281 146.281 48 143 48Z" fill="white"/>
<path d="M134.992 54.336V72H133.072V69.816C132.72 70.568 132.184 71.152 131.464 71.568C130.76 71.968 129.936 72.168 128.992 72.168C127.936 72.168 127 71.904 126.184 71.376C125.384 70.848 124.76 70.112 124.312 69.168C123.864 68.208 123.64 67.104 123.64 65.856C123.64 64.608 123.856 63.52 124.288 62.592C124.736 61.648 125.368 60.92 126.184 60.408C127 59.896 127.936 59.64 128.992 59.64C129.936 59.64 130.76 59.848 131.464 60.264C132.168 60.664 132.696 61.232 133.048 61.968V54.336H134.992ZM129.376 70.56C130.56 70.56 131.472 70.16 132.112 69.36C132.752 68.544 133.072 67.392 133.072 65.904C133.072 64.432 132.752 63.296 132.112 62.496C131.472 61.68 130.56 61.272 129.376 61.272C128.192 61.272 127.264 61.672 126.592 62.472C125.936 63.272 125.608 64.4 125.608 65.856C125.608 67.344 125.936 68.504 126.592 69.336C127.264 70.152 128.192 70.56 129.376 70.56ZM149.383 59.928V72H147.463V69.816C147.111 70.568 146.575 71.152 145.855 71.568C145.151 71.968 144.327 72.168 143.383 72.168C142.311 72.168 141.367 71.912 140.551 71.4C139.751 70.888 139.127 70.168 138.679 69.24C138.247 68.296 138.031 67.2 138.031 65.952C138.031 64.704 138.255 63.608 138.703 62.664C139.151 61.704 139.775 60.96 140.575 60.432C141.391 59.904 142.327 59.64 143.383 59.64C144.327 59.64 145.151 59.848 145.855 60.264C146.559 60.68 147.095 61.264 147.463 62.016V59.928H149.383ZM143.767 70.56C144.951 70.56 145.863 70.16 146.503 69.36C147.143 68.544 147.463 67.392 147.463 65.904C147.463 64.416 147.143 63.272 146.503 62.472C145.863 61.672 144.951 61.272 143.767 61.272C142.583 61.272 141.655 61.688 140.983 62.52C140.327 63.336 139.999 64.48 139.999 65.952C139.999 67.424 140.327 68.56 140.983 69.36C141.639 70.16 142.567 70.56 143.767 70.56ZM150.718 73.32L156.886 54.024H158.686L152.494 73.32H150.718ZM164.148 59.64C164.548 59.64 164.916 59.688 165.252 59.784L165.204 61.56C164.836 61.432 164.412 61.368 163.932 61.368C162.764 61.368 161.892 61.736 161.316 62.472C160.756 63.192 160.476 64.072 160.476 65.112V72H158.532V63.312C158.532 62.064 158.468 60.936 158.34 59.928H160.188L160.38 62.16C160.684 61.344 161.172 60.72 161.844 60.288C162.516 59.856 163.284 59.64 164.148 59.64ZM177.625 59.928V72H175.705V69.816C175.353 70.568 174.817 71.152 174.097 71.568C173.393 71.968 172.569 72.168 171.625 72.168C170.553 72.168 169.609 71.912 168.793 71.4C167.993 70.888 167.369 70.168 166.921 69.24C166.489 68.296 166.273 67.2 166.273 65.952C166.273 64.704 166.497 63.608 166.945 62.664C167.393 61.704 168.017 60.96 168.817 60.432C169.633 59.904 170.569 59.64 171.625 59.64C172.569 59.64 173.393 59.848 174.097 60.264C174.801 60.68 175.337 61.264 175.705 62.016V59.928H177.625ZM172.009 70.56C173.193 70.56 174.105 70.16 174.745 69.36C175.385 68.544 175.705 67.392 175.705 65.904C175.705 64.416 175.385 63.272 174.745 62.472C174.105 61.672 173.193 61.272 172.009 61.272C170.825 61.272 169.897 61.688 169.225 62.52C168.569 63.336 168.241 64.48 168.241 65.952C168.241 67.424 168.569 68.56 169.225 69.36C169.881 70.16 170.809 70.56 172.009 70.56Z" fill="white"/>
<path d="M199 48V42C200.625 42 202.031 41.4219 203.219 40.2656C204.406 39.0781 205 37.6562 205 36C205 34.375 204.406 32.9688 203.219 31.7812C202.031 30.5938 200.625 30 199 30V24C200.625 24 202.031 23.4219 203.219 22.2656C204.406 21.0781 205 19.6562 205 18H199V12H217C220.281 12 223.094 13.1875 225.438 15.5625C227.812 17.9062 229 20.7188 229 24V36C229 37.6562 229.578 39.0781 230.734 40.2656C231.922 41.4219 233.344 42 235 42V48C231.688 48 228.859 46.8281 226.516 44.4844C224.172 42.1406 223 39.3125 223 36V24C223 22.375 222.406 20.9688 221.219 19.7812C220.031 18.5938 218.625 18 217 18H211C211 21.3125 209.812 24.1406 207.438 26.4844C207.281 26.6719 207.109 26.8438 206.922 27C207.109 27.1875 207.281 27.375 207.438 27.5625C209.812 29.9062 211 32.7188 211 36C211 39.3125 209.812 42.1406 207.438 44.4844C205.094 46.8281 202.281 48 199 48Z" fill="white"/>
<path d="M216.687 59.928V71.904C216.687 73.696 216.223 75.048 215.295 75.96C214.383 76.888 213.031 77.352 211.239 77.352C209.399 77.352 207.815 76.936 206.487 76.104L206.823 74.52C207.591 74.952 208.311 75.264 208.983 75.456C209.671 75.648 210.423 75.744 211.239 75.744C212.407 75.744 213.287 75.432 213.879 74.808C214.471 74.2 214.767 73.288 214.767 72.072V69.216C214.399 69.984 213.855 70.584 213.135 71.016C212.431 71.432 211.591 71.64 210.615 71.64C209.559 71.64 208.615 71.392 207.783 70.896C206.967 70.4 206.335 69.696 205.887 68.784C205.439 67.872 205.215 66.824 205.215 65.64C205.215 64.456 205.439 63.408 205.887 62.496C206.335 61.584 206.967 60.88 207.783 60.384C208.615 59.888 209.559 59.64 210.615 59.64C211.575 59.64 212.407 59.848 213.111 60.264C213.831 60.68 214.375 61.264 214.743 62.016V59.928H216.687ZM210.999 70.008C212.167 70.008 213.079 69.624 213.735 68.856C214.407 68.072 214.743 67 214.743 65.64C214.743 64.28 214.407 63.216 213.735 62.448C213.079 61.664 212.167 61.272 210.999 61.272C209.815 61.272 208.879 61.664 208.191 62.448C207.519 63.216 207.183 64.28 207.183 65.64C207.183 67 207.519 68.072 208.191 68.856C208.879 69.624 209.815 70.008 210.999 70.008ZM231.051 59.928V72H229.131V69.816C228.779 70.568 228.243 71.152 227.523 71.568C226.819 71.968 225.995 72.168 225.051 72.168C223.979 72.168 223.035 71.912 222.219 71.4C221.419 70.888 220.795 70.168 220.347 69.24C219.915 68.296 219.699 67.2 219.699 65.952C219.699 64.704 219.923 63.608 220.371 62.664C220.819 61.704 221.443 60.96 222.243 60.432C223.059 59.904 223.995 59.64 225.051 59.64C225.995 59.64 226.819 59.848 227.523 60.264C228.227 60.68 228.763 61.264 229.131 62.016V59.928H231.051ZM225.435 70.56C226.619 70.56 227.531 70.16 228.171 69.36C228.811 68.544 229.131 67.392 229.131 65.904C229.131 64.416 228.811 63.272 228.171 62.472C227.531 61.672 226.619 61.272 225.435 61.272C224.251 61.272 223.323 61.688 222.651 62.52C221.995 63.336 221.667 64.48 221.667 65.952C221.667 67.424 221.995 68.56 222.651 69.36C223.307 70.16 224.235 70.56 225.435 70.56Z" fill="white"/>
<path d="M269 42C265.688 42 262.859 40.8281 260.516 38.4844C258.172 36.1406 257 33.3125 257 30C257 26.7188 258.172 23.9062 260.516 21.5625C262.859 19.1875 265.688 18 269 18V24C267.344 24 265.922 24.5938 264.734 25.7812C263.578 26.9688 263 28.375 263 30C263 31.6562 263.578 33.0781 264.734 34.2656C265.922 35.4219 267.344 36 269 36C270.625 36 272.031 35.4219 273.219 34.2656C274.406 33.0781 275 31.6562 275 30C275 26.7188 276.172 23.9062 278.516 21.5625C280.859 19.1875 283.688 18 287 18C290.281 18 293.094 19.1875 295.438 21.5625C297.812 23.9062 299 26.7188 299 30C299 33.3125 297.812 36.1406 295.438 38.4844C293.094 40.8281 290.281 42 287 42V36C288.625 36 290.031 35.4219 291.219 34.2656C292.406 33.0781 293 31.6562 293 30C293 28.375 292.406 26.9688 291.219 25.7812C290.031 24.5938 288.625 24 287 24C285.344 24 283.922 24.5938 282.734 25.7812C281.578 26.9688 281 28.375 281 30C281 33.3125 279.812 36.1406 277.438 38.4844C275.094 40.8281 272.281 42 269 42Z" fill="white"/>
<path d="M273.181 59.64C276.077 59.64 277.525 61.232 277.525 64.416V72H275.581V64.512C275.581 63.392 275.357 62.576 274.909 62.064C274.461 61.536 273.757 61.272 272.797 61.272C271.677 61.272 270.781 61.616 270.109 62.304C269.437 62.992 269.101 63.92 269.101 65.088V72H267.157V54.336H269.101V61.896C269.485 61.16 270.029 60.6 270.733 60.216C271.453 59.832 272.269 59.64 273.181 59.64ZM291.828 59.928V72H289.908V69.816C289.556 70.568 289.02 71.152 288.3 71.568C287.596 71.968 286.772 72.168 285.828 72.168C284.756 72.168 283.812 71.912 282.996 71.4C282.196 70.888 281.572 70.168 281.124 69.24C280.692 68.296 280.476 67.2 280.476 65.952C280.476 64.704 280.7 63.608 281.148 62.664C281.596 61.704 282.22 60.96 283.02 60.432C283.836 59.904 284.772 59.64 285.828 59.64C286.772 59.64 287.596 59.848 288.3 60.264C289.004 60.68 289.54 61.264 289.908 62.016V59.928H291.828ZM286.212 70.56C287.396 70.56 288.308 70.16 288.948 69.36C289.588 68.544 289.908 67.392 289.908 65.904C289.908 64.416 289.588 63.272 288.948 62.472C288.308 61.672 287.396 61.272 286.212 61.272C285.028 61.272 284.1 61.688 283.428 62.52C282.772 63.336 282.444 64.48 282.444 65.952C282.444 67.424 282.772 68.56 283.428 69.36C284.084 70.16 285.012 70.56 286.212 70.56Z" fill="white"/>
<path d="M330 48V36C326.688 36 323.859 34.8281 321.516 32.4844C319.172 30.1406 318 27.3125 318 24H324C324 25.6562 324.578 27.0781 325.734 28.2656C326.922 29.4219 328.344 30 330 30C331.625 30 333.031 29.4219 334.219 28.2656C335.406 27.0781 336 25.6562 336 24C336 20.7188 337.172 17.9062 339.516 15.5625C341.859 13.1875 344.688 12 348 12C351.281 12 354.094 13.1875 356.438 15.5625C358.812 17.9062 360 20.7188 360 24H354C354 22.375 353.406 20.9688 352.219 19.7812C351.031 18.5938 349.625 18 348 18C346.344 18 344.922 18.5938 343.734 19.7812C342.578 20.9688 342 22.375 342 24C342 27.3125 340.812 30.1406 338.438 32.4844C337.688 33.2656 336.875 33.9219 336 34.4531V48H330Z" fill="white"/>
<path d="M332.317 54.336H334.261V72H332.317V54.336ZM348.668 59.928V72H346.748V69.816C346.396 70.568 345.86 71.152 345.14 71.568C344.436 71.968 343.612 72.168 342.668 72.168C341.596 72.168 340.652 71.912 339.836 71.4C339.036 70.888 338.412 70.168 337.964 69.24C337.532 68.296 337.316 67.2 337.316 65.952C337.316 64.704 337.54 63.608 337.988 62.664C338.436 61.704 339.06 60.96 339.86 60.432C340.676 59.904 341.612 59.64 342.668 59.64C343.612 59.64 344.436 59.848 345.14 60.264C345.844 60.68 346.38 61.264 346.748 62.016V59.928H348.668ZM343.052 70.56C344.236 70.56 345.148 70.16 345.788 69.36C346.428 68.544 346.748 67.392 346.748 65.904C346.748 64.416 346.428 63.272 345.788 62.472C345.148 61.672 344.236 61.272 343.052 61.272C341.868 61.272 340.94 61.688 340.268 62.52C339.612 63.336 339.284 64.48 339.284 65.952C339.284 67.424 339.612 68.56 340.268 69.36C340.924 70.16 341.852 70.56 343.052 70.56Z" fill="white"/>
<path d="M391 42C392.625 42 394.031 41.4219 395.219 40.2656C396.406 39.0781 397 37.6562 397 36V30H385V36C385 37.6562 385.578 39.0781 386.734 40.2656C387.922 41.4219 389.344 42 391 42ZM391 48C387.688 48 384.859 46.8281 382.516 44.4844C380.172 42.1406 379 39.3125 379 36V18H385V24H397C397 20.7188 398.172 17.9062 400.516 15.5625C402.859 13.1875 405.688 12 409 12C412.281 12 415.094 13.1875 417.438 15.5625C419.812 17.9062 421 20.7188 421 24H415C415 22.375 414.406 20.9688 413.219 19.7812C412.031 18.5938 410.625 18 409 18C407.344 18 405.922 18.5938 404.734 19.7812C403.578 20.9688 403 22.375 403 24V36C403 39.3125 401.812 42.1406 399.438 44.4844C397.094 46.8281 394.281 48 391 48Z" fill="white"/>
<path d="M399.022 59.64C401.694 59.64 403.03 61.232 403.03 64.416V72H401.086V64.512C401.086 63.376 400.886 62.552 400.486 62.04C400.102 61.528 399.47 61.272 398.59 61.272C397.566 61.272 396.766 61.616 396.19 62.304C395.614 62.992 395.326 63.928 395.326 65.112V72H393.382V64.512C393.382 63.392 393.182 62.576 392.782 62.064C392.382 61.536 391.742 61.272 390.862 61.272C389.838 61.272 389.03 61.616 388.438 62.304C387.862 62.992 387.574 63.928 387.574 65.112V72H385.63V63.312C385.63 62.064 385.566 60.936 385.438 59.928H387.286L387.478 62.04C387.814 61.272 388.31 60.68 388.966 60.264C389.638 59.848 390.414 59.64 391.294 59.64C392.254 59.64 393.038 59.832 393.646 60.216C394.254 60.6 394.702 61.192 394.99 61.992C395.358 61.272 395.894 60.704 396.598 60.288C397.318 59.856 398.126 59.64 399.022 59.64ZM417.356 59.928V72H415.436V69.816C415.084 70.568 414.548 71.152 413.828 71.568C413.124 71.968 412.3 72.168 411.356 72.168C410.284 72.168 409.34 71.912 408.524 71.4C407.724 70.888 407.1 70.168 406.652 69.24C406.22 68.296 406.004 67.2 406.004 65.952C406.004 64.704 406.228 63.608 406.676 62.664C407.124 61.704 407.748 60.96 408.548 60.432C409.364 59.904 410.3 59.64 411.356 59.64C412.3 59.64 413.124 59.848 413.828 60.264C414.532 60.68 415.068 61.264 415.436 62.016V59.928H417.356ZM411.74 70.56C412.924 70.56 413.836 70.16 414.476 69.36C415.116 68.544 415.436 67.392 415.436 65.904C415.436 64.416 415.116 63.272 414.476 62.472C413.836 61.672 412.924 61.272 411.74 61.272C410.556 61.272 409.628 61.688 408.956 62.52C408.3 63.336 407.972 64.48 407.972 65.952C407.972 67.424 408.3 68.56 408.956 69.36C409.612 70.16 410.54 70.56 411.74 70.56Z" fill="white"/>
<path d="M18 142V112H12C10.3438 112 8.92188 112.594 7.73438 113.781C6.57812 114.969 6 116.375 6 118V130H0V118C0 114.719 1.17188 111.906 3.51562 109.562C5.85938 107.188 8.6875 106 12 106H30C33.2812 106 36.0938 107.188 38.4375 109.562C40.8125 111.906 42 114.719 42 118V130H36V118C36 116.375 35.4062 114.969 34.2188 113.781C33.0312 112.594 31.625 112 30 112H24V142H18Z" fill="white"/>
<path d="M16.1812 153.64C19.0772 153.64 20.5252 155.232 20.5252 158.416V166H18.5812V158.512C18.5812 157.392 18.3572 156.576 17.9092 156.064C17.4612 155.536 16.7572 155.272 15.7972 155.272C14.6772 155.272 13.7812 155.616 13.1092 156.304C12.4372 156.992 12.1012 157.92 12.1012 159.088V166H10.1572V157.312C10.1572 156.064 10.0932 154.936 9.96516 153.928H11.8132L12.0052 156.088C12.3732 155.304 12.9252 154.704 13.6612 154.288C14.3972 153.856 15.2372 153.64 16.1812 153.64ZM34.8282 153.928V166H32.9082V163.816C32.5562 164.568 32.0202 165.152 31.3002 165.568C30.5962 165.968 29.7722 166.168 28.8282 166.168C27.7562 166.168 26.8122 165.912 25.9962 165.4C25.1962 164.888 24.5722 164.168 24.1242 163.24C23.6922 162.296 23.4762 161.2 23.4762 159.952C23.4762 158.704 23.7002 157.608 24.1482 156.664C24.5962 155.704 25.2202 154.96 26.0202 154.432C26.8362 153.904 27.7722 153.64 28.8282 153.64C29.7722 153.64 30.5962 153.848 31.3002 154.264C32.0042 154.68 32.5402 155.264 32.9082 156.016V153.928H34.8282ZM29.2122 164.56C30.3962 164.56 31.3082 164.16 31.9482 163.36C32.5882 162.544 32.9082 161.392 32.9082 159.904C32.9082 158.416 32.5882 157.272 31.9482 156.472C31.3082 155.672 30.3962 155.272 29.2122 155.272C28.0282 155.272 27.1002 155.688 26.4282 156.52C25.7722 157.336 25.4442 158.48 25.4442 159.952C25.4442 161.424 25.7722 162.56 26.4282 163.36C27.0842 164.16 28.0122 164.56 29.2122 164.56Z" fill="white"/>
<path d="M58 142V136H64C65.625 136 67.0312 135.422 68.2188 134.266C69.4062 133.078 70 131.656 70 130V124C70 122.375 69.4062 120.969 68.2188 119.781C67.0312 118.594 65.625 118 64 118H58V112H64C67.2812 112 70.0938 113.188 72.4375 115.562C74.8125 117.906 76 120.719 76 124C77.625 124 79.0312 123.422 80.2188 122.266C81.4062 121.078 82 119.656 82 118C82 114.719 83.1719 111.906 85.5156 109.562C87.8594 107.188 90.6875 106 94 106C97.2812 106 100.094 107.188 102.438 109.562C104.812 111.906 106 114.719 106 118H100C100 116.375 99.4062 114.969 98.2188 113.781C97.0312 112.594 95.625 112 94 112C92.3438 112 90.9219 112.594 89.7344 113.781C88.5781 114.969 88 116.375 88 118C88 121.312 86.8125 124.141 84.4375 126.484C82.0938 128.828 79.2812 130 76 130C76 133.312 74.8125 136.141 72.4375 138.484C70.0938 140.828 67.2812 142 64 142H58Z" fill="white"/>
<path d="M69.939 153.64C72.835 153.64 74.283 155.232 74.283 158.416V166H72.339V158.512C72.339 157.392 72.115 156.576 71.667 156.064C71.219 155.536 70.515 155.272 69.555 155.272C68.435 155.272 67.539 155.616 66.867 156.304C66.195 156.992 65.859 157.92 65.859 159.088V166H63.915V157.312C63.915 156.064 63.851 154.936 63.723 153.928H65.571L65.763 156.088C66.131 155.304 66.683 154.704 67.419 154.288C68.155 153.856 68.995 153.64 69.939 153.64ZM88.706 153.928V165.904C88.706 167.696 88.242 169.048 87.314 169.96C86.402 170.888 85.05 171.352 83.258 171.352C81.418 171.352 79.834 170.936 78.506 170.104L78.842 168.52C79.61 168.952 80.33 169.264 81.002 169.456C81.69 169.648 82.442 169.744 83.258 169.744C84.426 169.744 85.306 169.432 85.898 168.808C86.49 168.2 86.786 167.288 86.786 166.072V163.216C86.418 163.984 85.874 164.584 85.154 165.016C84.45 165.432 83.61 165.64 82.634 165.64C81.578 165.64 80.634 165.392 79.802 164.896C78.986 164.4 78.354 163.696 77.906 162.784C77.458 161.872 77.234 160.824 77.234 159.64C77.234 158.456 77.458 157.408 77.906 156.496C78.354 155.584 78.986 154.88 79.802 154.384C80.634 153.888 81.578 153.64 82.634 153.64C83.594 153.64 84.426 153.848 85.13 154.264C85.85 154.68 86.394 155.264 86.762 156.016V153.928H88.706ZM83.018 164.008C84.186 164.008 85.098 163.624 85.754 162.856C86.426 162.072 86.762 161 86.762 159.64C86.762 158.28 86.426 157.216 85.754 156.448C85.098 155.664 84.186 155.272 83.018 155.272C81.834 155.272 80.898 155.664 80.21 156.448C79.538 157.216 79.202 158.28 79.202 159.64C79.202 161 79.538 162.072 80.21 162.856C80.898 163.624 81.834 164.008 83.018 164.008ZM103.07 153.928V166H101.15V163.816C100.798 164.568 100.262 165.152 99.5424 165.568C98.8384 165.968 98.0144 166.168 97.0704 166.168C95.9984 166.168 95.0544 165.912 94.2384 165.4C93.4384 164.888 92.8144 164.168 92.3664 163.24C91.9344 162.296 91.7184 161.2 91.7184 159.952C91.7184 158.704 91.9424 157.608 92.3904 156.664C92.8384 155.704 93.4624 154.96 94.2624 154.432C95.0784 153.904 96.0144 153.64 97.0704 153.64C98.0144 153.64 98.8384 153.848 99.5424 154.264C100.246 154.68 100.782 155.264 101.15 156.016V153.928H103.07ZM97.4544 164.56C98.6384 164.56 99.5504 164.16 100.19 163.36C100.83 162.544 101.15 161.392 101.15 159.904C101.15 158.416 100.83 157.272 100.19 156.472C99.5504 155.672 98.6384 155.272 97.4544 155.272C96.2704 155.272 95.3424 155.688 94.6704 156.52C94.0144 157.336 93.6864 158.48 93.6864 159.952C93.6864 161.424 94.0144 162.56 94.6704 163.36C95.3264 164.16 96.2544 164.56 97.4544 164.56Z" fill="white"/>
<path d="M146 148V142H152C153.625 142 155.031 141.422 156.219 140.266C157.406 139.078 158 137.656 158 136C158 134.375 157.406 132.969 156.219 131.781C155.031 130.594 153.625 130 152 130V124C153.625 124 155.031 123.422 156.219 122.266C157.406 121.078 158 119.656 158 118C158 116.375 157.406 114.969 156.219 113.781C155.031 112.594 153.625 112 152 112C150.344 112 148.922 112.594 147.734 113.781C146.578 114.969 146 116.375 146 118V130C146 133.312 144.812 136.141 142.438 138.484C140.094 140.828 137.281 142 134 142H122V106H128V136H134C135.625 136 137.031 135.422 138.219 134.266C139.406 133.078 140 131.656 140 130V118C140 114.719 141.172 111.906 143.516 109.562C145.859 107.188 148.688 106 152 106C155.281 106 158.094 107.188 160.438 109.562C162.812 111.906 164 114.719 164 118C164 121.312 162.812 124.141 160.438 126.484C160.281 126.672 160.109 126.844 159.922 127C160.109 127.188 160.281 127.375 160.438 127.562C162.812 129.906 164 132.719 164 136C164 139.312 162.812 142.125 160.438 144.438C158.094 146.812 155.281 148 152 148H146Z" fill="white"/>
<path d="M137.304 166.168C135.272 166.168 133.664 165.648 132.48 164.608L133.128 163.168C133.784 163.68 134.448 164.048 135.12 164.272C135.792 164.496 136.544 164.608 137.376 164.608C138.288 164.608 138.976 164.456 139.44 164.152C139.92 163.832 140.16 163.376 140.16 162.784C140.16 162.304 140 161.92 139.68 161.632C139.36 161.344 138.832 161.12 138.096 160.96L136.056 160.48C135.048 160.256 134.264 159.856 133.704 159.28C133.16 158.704 132.888 158.016 132.888 157.216C132.888 156.16 133.312 155.304 134.16 154.648C135.008 153.976 136.128 153.64 137.52 153.64C138.368 153.64 139.168 153.776 139.92 154.048C140.672 154.32 141.304 154.712 141.816 155.224L141.168 156.64C140.032 155.696 138.816 155.224 137.52 155.224C136.656 155.224 135.984 155.392 135.504 155.728C135.04 156.048 134.808 156.504 134.808 157.096C134.808 157.592 134.952 157.984 135.24 158.272C135.544 158.56 136.024 158.784 136.68 158.944L138.72 159.448C139.84 159.704 140.672 160.104 141.216 160.648C141.76 161.176 142.032 161.872 142.032 162.736C142.032 163.776 141.608 164.608 140.76 165.232C139.912 165.856 138.76 166.168 137.304 166.168ZM155.762 153.928V166H153.842V163.816C153.49 164.568 152.954 165.152 152.234 165.568C151.53 165.968 150.706 166.168 149.762 166.168C148.69 166.168 147.746 165.912 146.93 165.4C146.13 164.888 145.506 164.168 145.058 163.24C144.626 162.296 144.41 161.2 144.41 159.952C144.41 158.704 144.634 157.608 145.082 156.664C145.53 155.704 146.154 154.96 146.954 154.432C147.77 153.904 148.706 153.64 149.762 153.64C150.706 153.64 151.53 153.848 152.234 154.264C152.938 154.68 153.474 155.264 153.842 156.016V153.928H155.762ZM150.146 164.56C151.33 164.56 152.242 164.16 152.882 163.36C153.522 162.544 153.842 161.392 153.842 159.904C153.842 158.416 153.522 157.272 152.882 156.472C152.242 155.672 151.33 155.272 150.146 155.272C148.962 155.272 148.034 155.688 147.362 156.52C146.706 157.336 146.378 158.48 146.378 159.952C146.378 161.424 146.706 162.56 147.362 163.36C148.018 164.16 148.946 164.56 150.146 164.56Z" fill="white"/>
<path d="M195 148C191.688 148 188.859 146.812 186.516 144.438C184.172 142.125 183 139.312 183 136C183 132.719 184.172 129.906 186.516 127.562C186.672 127.375 186.844 127.188 187.031 127C186.844 126.844 186.672 126.672 186.516 126.484C184.172 124.141 183 121.312 183 118C183 114.719 184.172 111.906 186.516 109.562C188.859 107.188 191.688 106 195 106V112C193.344 112 191.922 112.594 190.734 113.781C189.578 114.969 189 116.375 189 118C189 119.656 189.578 121.078 190.734 122.266C191.922 123.422 193.344 124 195 124H201C202.625 124 204.031 123.422 205.219 122.266C206.406 121.078 207 119.656 207 118C207 114.719 208.172 111.906 210.516 109.562C212.859 107.188 215.688 106 219 106H225V112H219C217.344 112 215.922 112.594 214.734 113.781C213.578 114.969 213 116.375 213 118C213 121.312 211.812 124.141 209.438 126.484C207.094 128.828 204.281 130 201 130H195C193.344 130 191.922 130.594 190.734 131.781C189.578 132.969 189 134.375 189 136C189 137.656 189.578 139.078 190.734 140.266C191.922 141.422 193.344 142 195 142V148Z" fill="white"/>
<path d="M198.573 155.464V162.064C198.573 162.96 198.757 163.592 199.125 163.96C199.493 164.312 200.013 164.488 200.685 164.488C201.133 164.488 201.565 164.416 201.981 164.272V165.928C201.485 166.088 200.925 166.168 200.301 166.168C199.149 166.168 198.245 165.848 197.589 165.208C196.949 164.552 196.629 163.592 196.629 162.328V155.464H194.277V153.928H196.629V150.832L198.573 150.136V153.928H202.029V155.464H198.573ZM215.004 153.928V166H213.084V163.816C212.732 164.568 212.196 165.152 211.476 165.568C210.772 165.968 209.948 166.168 209.004 166.168C207.932 166.168 206.988 165.912 206.172 165.4C205.372 164.888 204.748 164.168 204.3 163.24C203.868 162.296 203.652 161.2 203.652 159.952C203.652 158.704 203.876 157.608 204.324 156.664C204.772 155.704 205.396 154.96 206.196 154.432C207.012 153.904 207.948 153.64 209.004 153.64C209.948 153.64 210.772 153.848 211.476 154.264C212.18 154.68 212.716 155.264 213.084 156.016V153.928H215.004ZM209.388 164.56C210.572 164.56 211.484 164.16 212.124 163.36C212.764 162.544 213.084 161.392 213.084 159.904C213.084 158.416 212.764 157.272 212.124 156.472C211.484 155.672 210.572 155.272 209.388 155.272C208.204 155.272 207.276 155.688 206.604 156.52C205.948 157.336 205.62 158.48 205.62 159.952C205.62 161.424 205.948 162.56 206.604 163.36C207.26 164.16 208.188 164.56 209.388 164.56Z" fill="white"/>
<path d="M265 142C261.688 142 258.859 140.828 256.516 138.484C254.172 136.141 253 133.312 253 130H247V124H259V130C259 131.656 259.578 133.078 260.734 134.266C261.922 135.422 263.344 136 265 136H271C272.625 136 274.031 135.422 275.219 134.266C276.406 133.078 277 131.656 277 130V118C277 116.375 276.406 114.969 275.219 113.781C274.031 112.594 272.625 112 271 112H265V106H271C274.281 106 277.094 107.188 279.438 109.562C281.812 111.906 283 114.719 283 118V130C283 133.312 281.812 136.141 279.438 138.484C277.094 140.828 274.281 142 271 142H265Z" fill="white"/>
<path d="M269.153 153.928L264.689 166H262.817L259.361 156.568L255.929 166H254.057L249.593 153.928H251.633L255.041 163.672L258.569 153.928H260.273L263.753 163.696L267.233 153.928H269.153ZM282.168 153.928V166H280.248V163.816C279.896 164.568 279.36 165.152 278.64 165.568C277.936 165.968 277.112 166.168 276.168 166.168C275.096 166.168 274.152 165.912 273.336 165.4C272.536 164.888 271.912 164.168 271.464 163.24C271.032 162.296 270.816 161.2 270.816 159.952C270.816 158.704 271.04 157.608 271.488 156.664C271.936 155.704 272.56 154.96 273.36 154.432C274.176 153.904 275.112 153.64 276.168 153.64C277.112 153.64 277.936 153.848 278.64 154.264C279.344 154.68 279.88 155.264 280.248 156.016V153.928H282.168ZM276.552 164.56C277.736 164.56 278.648 164.16 279.288 163.36C279.928 162.544 280.248 161.392 280.248 159.904C280.248 158.416 279.928 157.272 279.288 156.472C278.648 155.672 277.736 155.272 276.552 155.272C275.368 155.272 274.44 155.688 273.768 156.52C273.112 157.336 272.784 158.48 272.784 159.952C272.784 161.424 273.112 162.56 273.768 163.36C274.424 164.16 275.352 164.56 276.552 164.56Z" fill="white"/>
<path d="M320 142C316.688 142 313.859 140.828 311.516 138.484C309.172 136.141 308 133.312 308 130V118H302V112H314V130C314 131.656 314.578 133.078 315.734 134.266C316.922 135.422 318.344 136 320 136C321.625 136 323.031 135.422 324.219 134.266C325.406 133.078 326 131.656 326 130V118C326 114.719 327.172 111.906 329.516 109.562C331.859 107.188 334.688 106 338 106C341.281 106 344.094 107.188 346.438 109.562C348.812 111.906 350 114.719 350 118H344C344 116.375 343.406 114.969 342.219 113.781C341.031 112.594 339.625 112 338 112C336.344 112 334.922 112.594 333.734 113.781C332.578 114.969 332 116.375 332 118V130C332 133.312 330.812 136.141 328.438 138.484C326.094 140.828 323.281 142 320 142Z" fill="white"/>
<path d="M326.48 153.928L320.84 167.104C320.248 168.48 319.504 169.488 318.608 170.128C317.712 170.768 316.608 171.208 315.296 171.448L314.888 169.936C316.024 169.68 316.88 169.336 317.456 168.904C318.048 168.488 318.536 167.84 318.92 166.96L319.4 165.88L314.288 153.928H316.328L320.408 163.888L324.536 153.928H326.48ZM339.113 153.928V166H337.193V163.816C336.841 164.568 336.305 165.152 335.585 165.568C334.881 165.968 334.057 166.168 333.113 166.168C332.041 166.168 331.097 165.912 330.281 165.4C329.481 164.888 328.857 164.168 328.409 163.24C327.977 162.296 327.761 161.2 327.761 159.952C327.761 158.704 327.985 157.608 328.433 156.664C328.881 155.704 329.505 154.96 330.305 154.432C331.121 153.904 332.057 153.64 333.113 153.64C334.057 153.64 334.881 153.848 335.585 154.264C336.289 154.68 336.825 155.264 337.193 156.016V153.928H339.113ZM333.497 164.56C334.681 164.56 335.593 164.16 336.233 163.36C336.873 162.544 337.193 161.392 337.193 159.904C337.193 158.416 336.873 157.272 336.233 156.472C335.593 155.672 334.681 155.272 333.497 155.272C332.313 155.272 331.385 155.688 330.713 156.52C330.057 157.336 329.729 158.48 329.729 159.952C329.729 161.424 330.057 162.56 330.713 163.36C331.369 164.16 332.297 164.56 333.497 164.56Z" fill="white"/>
<path d="M378 142C374.688 142 371.859 140.828 369.516 138.484C367.172 136.141 366 133.312 366 130H372C372 131.656 372.578 133.078 373.734 134.266C374.922 135.422 376.344 136 378 136C379.625 136 381.031 135.422 382.219 134.266C383.406 133.078 384 131.656 384 130V118C384 114.719 385.172 111.906 387.516 109.562C389.859 107.188 392.688 106 396 106C399.281 106 402.094 107.188 404.438 109.562C406.812 111.906 408 114.719 408 118H402C402 116.375 401.406 114.969 400.219 113.781C399.031 112.594 397.625 112 396 112C394.344 112 392.922 112.594 391.734 113.781C390.578 114.969 390 116.375 390 118V124H396V130H390C390 133.312 388.812 136.141 386.438 138.484C384.094 140.828 381.281 142 378 142Z" fill="white"/>
<path d="M382.005 153.64C383.061 153.64 383.997 153.904 384.813 154.432C385.629 154.96 386.261 155.704 386.709 156.664C387.157 157.608 387.381 158.704 387.381 159.952C387.381 161.2 387.157 162.296 386.709 163.24C386.261 164.168 385.629 164.888 384.813 165.4C384.013 165.912 383.077 166.168 382.005 166.168C381.061 166.168 380.237 165.96 379.533 165.544C378.829 165.128 378.293 164.536 377.925 163.768V171.184H375.981V157.312C375.981 156.064 375.917 154.936 375.789 153.928H377.637L377.829 156.256C378.165 155.424 378.693 154.784 379.413 154.336C380.149 153.872 381.013 153.64 382.005 153.64ZM381.645 164.56C382.829 164.56 383.741 164.16 384.381 163.36C385.037 162.56 385.365 161.424 385.365 159.952C385.365 158.48 385.037 157.336 384.381 156.52C383.725 155.688 382.813 155.272 381.645 155.272C380.445 155.272 379.525 155.672 378.885 156.472C378.245 157.272 377.925 158.416 377.925 159.904C377.925 161.392 378.245 162.544 378.885 163.36C379.525 164.16 380.445 164.56 381.645 164.56ZM401.004 153.928V166H399.084V163.816C398.732 164.568 398.196 165.152 397.476 165.568C396.772 165.968 395.948 166.168 395.004 166.168C393.932 166.168 392.988 165.912 392.172 165.4C391.372 164.888 390.748 164.168 390.3 163.24C389.868 162.296 389.652 161.2 389.652 159.952C389.652 158.704 389.876 157.608 390.324 156.664C390.772 155.704 391.396 154.96 392.196 154.432C393.012 153.904 393.948 153.64 395.004 153.64C395.948 153.64 396.772 153.848 397.476 154.264C398.18 154.68 398.716 155.264 399.084 156.016V153.928H401.004ZM395.388 164.56C396.572 164.56 397.484 164.16 398.124 163.36C398.764 162.544 399.084 161.392 399.084 159.904C399.084 158.416 398.764 157.272 398.124 156.472C397.484 155.672 396.572 155.272 395.388 155.272C394.204 155.272 393.276 155.688 392.604 156.52C391.948 157.336 391.62 158.48 391.62 159.952C391.62 161.424 391.948 162.56 392.604 163.36C393.26 164.16 394.188 164.56 395.388 164.56Z" fill="white"/>
</svg>
