<svg width="167" height="78" viewBox="0 0 167 78" fill="none" xmlns="http://www.w3.org/2000/svg">
<path d="M24 12.6094C23.0312 12.6094 22.1875 12.2656 21.4688 11.5781C20.7812 10.8594 20.4375 10 20.4375 9C20.4375 8.03125 20.7812 7.1875 21.4688 6.46875C22.1875 5.78125 23.0312 5.4375 24 5.4375C25 5.4375 25.8594 5.78125 26.5781 6.46875C27.2656 7.1875 27.6094 8.03125 27.6094 9C27.6094 10 27.2656 10.8594 26.5781 11.5781C25.8594 12.2656 25 12.6094 24 12.6094Z" fill="white"/>
<path d="M21.6557 65.904H12.7997C12.8157 67.44 13.1677 68.6 13.8557 69.384C14.5597 70.168 15.5757 70.56 16.9037 70.56C18.3117 70.56 19.6077 70.088 20.7917 69.144L21.4397 70.56C20.9117 71.056 20.2317 71.448 19.3997 71.736C18.5837 72.024 17.7437 72.168 16.8797 72.168C14.9917 72.168 13.5117 71.616 12.4397 70.512C11.3677 69.392 10.8317 67.864 10.8317 65.928C10.8317 64.696 11.0717 63.608 11.5517 62.664C12.0317 61.704 12.7037 60.96 13.5677 60.432C14.4317 59.904 15.4157 59.64 16.5197 59.64C18.1197 59.64 19.3757 60.168 20.2877 61.224C21.1997 62.264 21.6557 63.704 21.6557 65.544V65.904ZM16.5437 61.152C15.5357 61.152 14.7117 61.456 14.0717 62.064C13.4477 62.672 13.0477 63.528 12.8717 64.632H19.9037C19.8077 63.496 19.4717 62.632 18.8957 62.04C18.3357 61.448 17.5517 61.152 16.5437 61.152ZM22.2996 73.32L28.4676 54.024H30.2676L24.0756 73.32H22.2996ZM31.4736 59.928H33.4176V72H31.4736V59.928ZM33.6576 54.816V57.024H31.2816V54.816H33.6576Z" fill="white"/>
<path d="M84 42.5625C83.0312 42.5625 82.1875 42.2188 81.4688 41.5312C80.7812 40.8125 80.4375 39.9688 80.4375 39C80.4375 38 80.7812 37.1406 81.4688 36.4219C82.1875 35.7344 83.0312 35.3906 84 35.3906C85 35.3906 85.8594 35.7344 86.5781 36.4219C87.2656 37.1406 87.6094 38 87.6094 39C87.6094 39.9688 87.2656 40.8125 86.5781 41.5312C85.8594 42.2188 85 42.5625 84 42.5625Z" fill="white"/>
<path d="M73.8757 72.168C72.7397 72.168 71.7397 71.912 70.8757 71.4C70.0117 70.888 69.3397 70.16 68.8597 69.216C68.3957 68.272 68.1637 67.168 68.1637 65.904C68.1637 64.64 68.3957 63.536 68.8597 62.592C69.3397 61.648 70.0117 60.92 70.8757 60.408C71.7397 59.896 72.7397 59.64 73.8757 59.64C75.0117 59.64 76.0117 59.896 76.8757 60.408C77.7397 60.92 78.4037 61.648 78.8677 62.592C79.3477 63.536 79.5877 64.64 79.5877 65.904C79.5877 67.168 79.3477 68.272 78.8677 69.216C78.4037 70.16 77.7397 70.888 76.8757 71.4C76.0117 71.912 75.0117 72.168 73.8757 72.168ZM73.8757 70.56C75.0757 70.56 75.9957 70.168 76.6357 69.384C77.2757 68.584 77.5957 67.424 77.5957 65.904C77.5957 64.432 77.2677 63.296 76.6117 62.496C75.9557 61.68 75.0437 61.272 73.8757 61.272C72.6917 61.272 71.7717 61.68 71.1157 62.496C70.4597 63.296 70.1317 64.432 70.1317 65.904C70.1317 67.424 70.4517 68.584 71.0917 69.384C71.7477 70.168 72.6757 70.56 73.8757 70.56ZM80.1941 73.32L86.3621 54.024H88.1621L81.9701 73.32H80.1941ZM98.1127 59.928V72H96.2167V69.912C95.8327 70.648 95.2967 71.208 94.6087 71.592C93.9207 71.976 93.1447 72.168 92.2807 72.168C90.8567 72.168 89.7767 71.768 89.0407 70.968C88.3047 70.168 87.9367 68.984 87.9367 67.416V59.928H89.8807V67.368C89.8807 68.456 90.1047 69.256 90.5527 69.768C91.0007 70.28 91.6807 70.536 92.5927 70.536C93.6647 70.536 94.5287 70.192 95.1847 69.504C95.8407 68.8 96.1687 67.88 96.1687 66.744V59.928H98.1127Z" fill="white"/>
<path d="M141 45V42H138V36H141V33H147V36H150V42H147V45H141Z" fill="white"/>
<path d="M150.409 65.856H145.249V71.016H143.761V65.856H138.601V64.344H143.761V59.184H145.249V64.344H150.409V65.856Z" fill="white"/>
</svg>
