<svg width="167" height="78" viewBox="0 0 167 78" fill="none" xmlns="http://www.w3.org/2000/svg">
<path d="M9 48V30H3V24H9V18H3V12H15V42H21C22.625 42 24.0312 41.4219 25.2188 40.2656C26.4062 39.0781 27 37.6562 27 36V24C27 20.7188 28.1719 17.9062 30.5156 15.5625C32.8594 13.1875 35.6875 12 39 12V18C37.3438 18 35.9219 18.5938 34.7344 19.7812C33.5781 20.9688 33 22.375 33 24V36C33 39.3125 31.8125 42.1406 29.4375 44.4844C27.0938 46.8281 24.2812 48 21 48H9Z" fill="white"/>
<path d="M27.8087 59.928V72H25.8887V69.816C25.5367 70.568 25.0007 71.152 24.2807 71.568C23.5767 71.968 22.7527 72.168 21.8087 72.168C20.7367 72.168 19.7927 71.912 18.9767 71.4C18.1767 70.888 17.5527 70.168 17.1047 69.24C16.6727 68.296 16.4567 67.2 16.4567 65.952C16.4567 64.704 16.6807 63.608 17.1287 62.664C17.5767 61.704 18.2007 60.96 19.0007 60.432C19.8167 59.904 20.7527 59.64 21.8087 59.64C22.7527 59.64 23.5767 59.848 24.2807 60.264C24.9847 60.68 25.5207 61.264 25.8887 62.016V59.928H27.8087ZM22.1927 70.56C23.3767 70.56 24.2887 70.16 24.9287 69.36C25.5687 68.544 25.8887 67.392 25.8887 65.904C25.8887 64.416 25.5687 63.272 24.9287 62.472C24.2887 61.672 23.3767 61.272 22.1927 61.272C21.0087 61.272 20.0807 61.688 19.4087 62.52C18.7527 63.336 18.4247 64.48 18.4247 65.952C18.4247 67.424 18.7527 68.56 19.4087 69.36C20.0647 70.16 20.9927 70.56 22.1927 70.56Z" fill="white"/>
<path d="M82 37.9688H81.9531H82ZM73 42C69.6875 42 66.8594 40.8281 64.5156 38.4844C62.1719 36.1406 61 33.3125 61 30H67C67 31.6562 67.5781 33.0781 68.7344 34.2656C69.9219 35.4219 71.3438 36 73 36C74.625 36 76.0312 35.4219 77.2188 34.2656C78.4062 33.0781 79 31.6562 79 30H85C85 31.6562 85.5781 33.0781 86.7344 34.2656C87.9219 35.4219 89.3438 36 91 36C92.625 36 94.0312 35.4219 95.2188 34.2656C96.4062 33.0781 97 31.6562 97 30H103C103 33.3125 101.812 36.1406 99.4375 38.4844C97.0938 40.8281 94.2812 42 91 42C87.6875 42 84.8594 40.8281 82.5156 38.4844C82.3281 38.3281 82.1562 38.1562 82 37.9688C81.8125 38.1562 81.625 38.3281 81.4375 38.4844C79.0938 40.8281 76.2812 42 73 42ZM61 24V18H103V24H61Z" fill="white"/>
<path d="M82.6557 65.904H73.7997C73.8157 67.44 74.1677 68.6 74.8557 69.384C75.5597 70.168 76.5757 70.56 77.9037 70.56C79.3117 70.56 80.6077 70.088 81.7917 69.144L82.4397 70.56C81.9117 71.056 81.2317 71.448 80.3997 71.736C79.5837 72.024 78.7437 72.168 77.8797 72.168C75.9917 72.168 74.5117 71.616 73.4397 70.512C72.3677 69.392 71.8317 67.864 71.8317 65.928C71.8317 64.696 72.0717 63.608 72.5517 62.664C73.0317 61.704 73.7037 60.96 74.5677 60.432C75.4317 59.904 76.4157 59.64 77.5197 59.64C79.1197 59.64 80.3757 60.168 81.2877 61.224C82.1997 62.264 82.6557 63.704 82.6557 65.544V65.904ZM77.5437 61.152C76.5357 61.152 75.7117 61.456 75.0717 62.064C74.4477 62.672 74.0477 63.528 73.8717 64.632H80.9037C80.8077 63.496 80.4717 62.632 79.8957 62.04C79.3357 61.448 78.5517 61.152 77.5437 61.152ZM83.2996 73.32L89.4676 54.024H91.2676L85.0756 73.32H83.2996ZM92.4736 59.928H94.4176V72H92.4736V59.928ZM94.6576 54.816V57.024H92.2816V54.816H94.6576Z" fill="white"/>
<path d="M143 48C139.688 48 136.859 46.8281 134.516 44.4844C132.172 42.1406 131 39.3125 131 36H137C137 37.6562 137.578 39.0781 138.734 40.2656C139.922 41.4219 141.344 42 143 42C144.625 42 146.031 41.4219 147.219 40.2656C148.406 39.0781 149 37.6562 149 36C149 34.375 148.406 32.9688 147.219 31.7812C146.031 30.5938 144.625 30 143 30V24C144.625 24 146.031 23.4219 147.219 22.2656C148.406 21.0781 149 19.6562 149 18H137V12H155V18C155 21.3125 153.812 24.1406 151.438 26.4844C151.281 26.6719 151.109 26.8438 150.922 27C151.109 27.1875 151.281 27.375 151.438 27.5625C153.812 29.9062 155 32.7188 155 36C155 39.3125 153.812 42.1406 151.438 44.4844C149.094 46.8281 146.281 48 143 48Z" fill="white"/>
<path d="M134.876 72.168C133.74 72.168 132.74 71.912 131.876 71.4C131.012 70.888 130.34 70.16 129.86 69.216C129.396 68.272 129.164 67.168 129.164 65.904C129.164 64.64 129.396 63.536 129.86 62.592C130.34 61.648 131.012 60.92 131.876 60.408C132.74 59.896 133.74 59.64 134.876 59.64C136.012 59.64 137.012 59.896 137.876 60.408C138.74 60.92 139.404 61.648 139.868 62.592C140.348 63.536 140.588 64.64 140.588 65.904C140.588 67.168 140.348 68.272 139.868 69.216C139.404 70.16 138.74 70.888 137.876 71.4C137.012 71.912 136.012 72.168 134.876 72.168ZM134.876 70.56C136.076 70.56 136.996 70.168 137.636 69.384C138.276 68.584 138.596 67.424 138.596 65.904C138.596 64.432 138.268 63.296 137.612 62.496C136.956 61.68 136.044 61.272 134.876 61.272C133.692 61.272 132.772 61.68 132.116 62.496C131.46 63.296 131.132 64.432 131.132 65.904C131.132 67.424 131.452 68.584 132.092 69.384C132.748 70.168 133.676 70.56 134.876 70.56ZM141.194 73.32L147.362 54.024H149.162L142.97 73.32H141.194ZM159.113 59.928V72H157.217V69.912C156.833 70.648 156.297 71.208 155.609 71.592C154.921 71.976 154.145 72.168 153.281 72.168C151.857 72.168 150.777 71.768 150.041 70.968C149.305 70.168 148.937 68.984 148.937 67.416V59.928H150.881V67.368C150.881 68.456 151.105 69.256 151.553 69.768C152.001 70.28 152.681 70.536 153.593 70.536C154.665 70.536 155.529 70.192 156.185 69.504C156.841 68.8 157.169 67.88 157.169 66.744V59.928H159.113Z" fill="white"/>
</svg>
